<svg width="16" height="16" viewBox="0 0 16 16" fill="none" xmlns="http://www.w3.org/2000/svg">
<g clip-path="url(#clip0_1_324)">
<path d="M12.4557 11.0422H14.2995C14.6682 11.0422 14.9141 10.7964 14.9141 10.4276V1.70052C14.9141 1.33177 14.6682 1.08594 14.2995 1.08594H12.4557C12.087 1.08594 11.8412 1.33177 11.8412 1.70052V10.4276C11.8412 10.7964 12.087 11.0422 12.4557 11.0422Z" stroke="#2B3674" stroke-width="1.25" stroke-linecap="round" stroke-linejoin="round"/>
<path d="M7.07811 11.0422H8.92186C9.29061 11.0422 9.53645 10.7963 9.53645 10.4276V4.77343C9.53645 4.40468 9.29061 4.15884 8.92186 4.15884H7.07811C6.70936 4.15884 6.46353 4.40468 6.46353 4.77343V10.4276C6.46353 10.7963 6.70936 11.0422 7.07811 11.0422Z" stroke="#2B3674" stroke-width="1.25" stroke-linecap="round" stroke-linejoin="round"/>
<path d="M7.07811 14.9141H8.92186C9.29061 14.9141 9.53645 14.6682 9.53645 14.2995V13.6849C9.53645 13.3161 9.29061 13.0703 8.92186 13.0703H7.07811C6.70936 13.0703 6.46353 13.3161 6.46353 13.6849V14.2995C6.46353 14.6682 6.70936 14.9141 7.07811 14.9141Z" stroke="#2B3674" stroke-width="1.25" stroke-linecap="round" stroke-linejoin="round"/>
<path d="M1.70052 11.0422H3.54427C3.91302 11.0422 4.15885 10.7964 4.15885 10.4276V7.84636C4.15885 7.47761 3.91302 7.23178 3.54427 7.23178H1.70052C1.33177 7.23178 1.08594 7.47761 1.08594 7.84636V10.4276C1.08594 10.7964 1.33177 11.0422 1.70052 11.0422Z" stroke="#2B3674" stroke-width="1.25" stroke-linecap="round" stroke-linejoin="round"/>
<path d="M1.70052 14.9141H3.54427C3.91302 14.9141 4.15885 14.6682 4.15885 14.2995V13.6849C4.15885 13.3161 3.91302 13.0703 3.54427 13.0703H1.70052C1.33177 13.0703 1.08594 13.3161 1.08594 13.6849V14.2995C1.08594 14.6682 1.33177 14.9141 1.70052 14.9141Z" stroke="#2B3674" stroke-width="1.25" stroke-linecap="round" stroke-linejoin="round"/>
<path d="M11.8412 14.9141H14.9141" stroke="#2B3674" stroke-width="1.25" stroke-linecap="round" stroke-linejoin="round"/>
</g>
<defs>
<clipPath id="clip0_1_324">
<rect width="16" height="16" fill="white"/>
</clipPath>
</defs>
</svg>
