<svg width="16" height="17" viewBox="0 0 16 17" fill="none" xmlns="http://www.w3.org/2000/svg">
<g clip-path="url(#clip0_1_205)">
<path d="M8.96735 8.96094H7.7179C7.5264 8.96106 7.34092 9.0278 7.19329 9.14974C7.04567 9.27167 6.945 9.44117 6.90868 9.62917C6.87236 9.81718 6.9026 10.012 6.99417 10.1801C7.08574 10.3483 7.233 10.4794 7.41061 10.5509L8.67911 11.0585C8.85673 11.13 9.00398 11.2611 9.09555 11.4292C9.18713 11.5974 9.21736 11.7922 9.18104 11.9802C9.14472 12.1682 9.04405 12.3377 8.89643 12.4596C8.7488 12.5816 8.56332 12.6483 8.37182 12.6484H7.1236" stroke="#2B3674" stroke-width="1.25" stroke-linecap="round" stroke-linejoin="round"/>
<path d="M8.04547 8.96094V8.5" stroke="#2B3674" stroke-width="1.25" stroke-linecap="round" stroke-linejoin="round"/>
<path d="M8.04547 13.1094V12.6484" stroke="#2B3674" stroke-width="1.25" stroke-linecap="round" stroke-linejoin="round"/>
<path d="M4.81891 6.19531H11.272" stroke="#2B3674" stroke-width="1.25" stroke-linecap="round" stroke-linejoin="round"/>
<path d="M10.2309 4.21999L11.1147 2.45245C11.1579 2.36594 11.1728 2.26804 11.1572 2.17261C11.1418 2.07717 11.0966 1.98903 11.0282 1.92066C10.9598 1.85229 10.8717 1.80716 10.7763 1.79163C10.6809 1.77611 10.583 1.791 10.4964 1.83418L9.32874 2.41681C9.22826 2.46696 9.11296 2.47871 9.00442 2.44985C8.89589 2.421 8.80161 2.35352 8.73935 2.26009L8.43022 1.79116C8.38812 1.72803 8.33109 1.67627 8.26422 1.64047C8.19729 1.60467 8.12262 1.58594 8.04672 1.58594C7.97082 1.58594 7.89615 1.60467 7.82922 1.64047C7.76235 1.67627 7.70532 1.72803 7.66322 1.79116L7.3504 2.26009C7.2882 2.35362 7.19392 2.42119 7.08539 2.45005C6.97679 2.47891 6.86143 2.46709 6.761 2.41681L5.59514 1.83418C5.50861 1.7912 5.41076 1.77646 5.31541 1.79204C5.22005 1.80762 5.13199 1.85274 5.06364 1.92103C4.99528 1.98931 4.95007 2.07733 4.9344 2.17267C4.91872 2.26801 4.93336 2.36587 4.97625 2.45245L5.84282 4.18558" stroke="#2B3674" stroke-width="1.25" stroke-linecap="round" stroke-linejoin="round"/>
<path d="M5.07274 7.57812L3.37649 9.54479C2.9614 10.0843 2.70568 10.7293 2.63828 11.4068C2.57088 12.0842 2.69448 12.7669 2.9951 13.3777C3.29573 13.9885 3.76136 14.5029 4.33927 14.8627C4.91718 15.2224 5.58428 15.4133 6.26503 15.4134H9.82347C10.5042 15.4133 11.1713 15.2224 11.7492 14.8627C12.3272 14.5029 12.7928 13.9885 13.0934 13.3777C13.394 12.7669 13.5176 12.0842 13.4502 11.4068C13.3828 10.7293 13.1271 10.0843 12.712 9.54479L11.0158 7.57812" stroke="#2B3674" stroke-width="1.25" stroke-linecap="round" stroke-linejoin="round"/>
</g>
<defs>
<clipPath id="clip0_1_205">
<rect width="16" height="16" fill="white" transform="translate(0 0.5)"/>
</clipPath>
</defs>
</svg>
