<svg width="16" height="17" viewBox="0 0 16 17" fill="none" xmlns="http://www.w3.org/2000/svg">
<g clip-path="url(#clip0_1_236)">
<path d="M11.6532 8.30321L12.6009 10.8654H14.4446C14.5376 10.8618 14.6295 10.8869 14.7076 10.9374C14.7858 10.988 14.8464 11.0614 14.8812 11.1477C14.9161 11.2339 14.9234 11.3289 14.9023 11.4195C14.8811 11.5101 14.8324 11.592 14.763 11.6539L13.1651 12.7092L14.0519 14.7453C14.0906 14.8385 14.0992 14.9416 14.0763 15.0399C14.0534 15.1382 14.0003 15.2269 13.9244 15.2935C13.8486 15.3602 13.7537 15.4013 13.6532 15.4112C13.5527 15.4211 13.4517 15.3993 13.3642 15.3488L11.2212 14.1436L9.07871 15.3488C8.99132 15.3995 8.89016 15.4215 8.78955 15.4117C8.68888 15.4019 8.59393 15.3608 8.51791 15.2942C8.44188 15.2275 8.38872 15.1387 8.3658 15.0402C8.34294 14.9418 8.35154 14.8386 8.39038 14.7453L9.276 12.7092L7.67808 11.6539C7.60839 11.5922 7.55946 11.5104 7.53808 11.4198C7.51669 11.3292 7.52382 11.2342 7.5586 11.1478C7.59333 11.0615 7.65393 10.9879 7.7321 10.9374C7.81028 10.8868 7.90222 10.8617 7.9952 10.8654H9.83895L10.7879 8.30321C10.83 8.22516 10.8925 8.15996 10.9686 8.11448C11.0448 8.06906 11.1319 8.04509 11.2205 8.04509C11.3093 8.04509 11.3963 8.06906 11.4725 8.11448C11.5487 8.15996 11.6111 8.22516 11.6532 8.30321Z" stroke="#2B3674" stroke-width="1.25" stroke-linecap="round" stroke-linejoin="round"/>
<path d="M5.69531 12.6484H2.00781C1.76332 12.6484 1.52883 12.5513 1.35595 12.3785C1.18306 12.2056 1.08594 11.971 1.08594 11.7266V5.27344C1.08594 5.02894 1.18306 4.79446 1.35595 4.62157C1.52883 4.44869 1.76332 4.35156 2.00781 4.35156H11.2266C11.471 4.35156 11.7056 4.44869 11.8785 4.62157C12.0513 4.79446 12.1484 5.02894 12.1484 5.27344V6.19531" stroke="#2B3674" stroke-width="1.25" stroke-linecap="round" stroke-linejoin="round"/>
<path d="M11.851 4.59555L10.1173 1.99648C10.0332 1.87046 9.91949 1.76708 9.78606 1.69548C9.65257 1.62387 9.50354 1.58625 9.3521 1.58594H3.88232C3.73056 1.58595 3.58114 1.62343 3.44735 1.69504C3.31355 1.76666 3.19949 1.8702 3.11532 1.99648L1.38342 4.59555" stroke="#2B3674" stroke-width="1.25" stroke-linecap="round" stroke-linejoin="round"/>
<path d="M6.61719 1.58594V4.35156" stroke="#2B3674" stroke-width="1.25" stroke-linecap="round" stroke-linejoin="round"/>
</g>
<defs>
<clipPath id="clip0_1_236">
<rect width="16" height="16" fill="white" transform="translate(0 0.5)"/>
</clipPath>
</defs>
</svg>
