<svg width="16" height="17" viewBox="0 0 16 17" fill="none" xmlns="http://www.w3.org/2000/svg">
<path d="M1.23956 12.2656L7.99998 14.1093" stroke="#2B3674" stroke-width="1.25" stroke-linecap="round" stroke-linejoin="round"/>
<path d="M8 14.1093L14.7604 12.2656" stroke="#2B3674" stroke-width="1.25" stroke-linecap="round" stroke-linejoin="round"/>
<path d="M1.23956 12.2656L4.61547 11.3812" stroke="#2B3674" stroke-width="1.25" stroke-linecap="round" stroke-linejoin="round"/>
<path d="M1.23956 15.0687V12.3424" stroke="#2B3674" stroke-width="1.25" stroke-linecap="round" stroke-linejoin="round"/>
<path d="M14.7604 12.3424V15.0687" stroke="#2B3674" stroke-width="1.25" stroke-linecap="round" stroke-linejoin="round"/>
<path d="M8 15.376V14.1093" stroke="#2B3674" stroke-width="1.25" stroke-linecap="round" stroke-linejoin="round"/>
<path d="M10.151 4.85062C10.151 6.0386 9.79272 9.15269 7.99998 9.15269C6.20724 9.15269 5.84894 6.04168 5.84894 4.85062C5.84894 2.69957 7.99998 1.62405 7.99998 1.62405C7.99998 1.62405 10.151 2.69957 10.151 4.85062Z" stroke="#2B3674" stroke-width="1.25" stroke-linecap="round" stroke-linejoin="round"/>
<path d="M7.99998 4.77379C7.83029 4.77379 7.69269 4.63621 7.69269 4.4665C7.69269 4.29679 7.83029 4.15921 7.99998 4.15921" stroke="#2B3674" stroke-width="1.25"/>
<path d="M8 4.77379C8.16969 4.77379 8.30729 4.63621 8.30729 4.4665C8.30729 4.29679 8.16969 4.15921 8 4.15921" stroke="#2B3674" stroke-width="1.25"/>
<path d="M6.77698 12.1144V11.4949C6.82627 11.2016 6.97936 10.9358 7.20835 10.746C7.43735 10.5562 7.72694 10.455 8.02427 10.461C8.32167 10.467 8.60696 10.5797 8.82815 10.7785C9.04934 10.9773 9.19168 11.249 9.22917 11.5441V12.1144" stroke="#2B3674" stroke-width="1.25" stroke-linecap="round" stroke-linejoin="round"/>
<path d="M6.57599 8.59902L6.0794 8.84792C5.79863 8.99696 5.54142 9.18662 5.31609 9.41088C5.26216 9.46872 5.19233 9.50934 5.11539 9.52765C5.03845 9.54591 4.95781 9.54105 4.88362 9.5137C4.80942 9.48629 4.74497 9.43762 4.69835 9.37376C4.65174 9.30985 4.62504 9.23358 4.62161 9.1546C4.56893 8.69409 4.66702 8.22885 4.90117 7.82882C5.13532 7.42879 5.49289 7.1155 5.92023 6.93594" stroke="#2B3674" stroke-width="1.25" stroke-linecap="round" stroke-linejoin="round"/>
<path d="M9.42401 8.59902L9.9206 8.84792C10.2014 8.99696 10.4586 9.18662 10.6839 9.41088C10.7379 9.46872 10.8077 9.50934 10.8846 9.52765C10.9616 9.54591 11.0422 9.54105 11.1164 9.5137C11.1906 9.48629 11.255 9.43762 11.3016 9.37376C11.3483 9.30985 11.3749 9.23358 11.3784 9.1546C11.4311 8.69409 11.333 8.22885 11.0988 7.82882C10.8647 7.42879 10.5071 7.1155 10.0798 6.93594" stroke="#2B3674" stroke-width="1.25" stroke-linecap="round" stroke-linejoin="round"/>
<path d="M14.7604 12.2656L11.3845 11.3812" stroke="#2B3674" stroke-width="1.25" stroke-linecap="round" stroke-linejoin="round"/>
</svg>
